<svg width="931" height="200" viewBox="0 0 931 200" fill="none" xmlns="http://www.w3.org/2000/svg">
<path d="M336.334 59.071V148H321.758V90.559C321.758 88.263 321.881 85.7825 322.127 83.1175L295.252 133.609C293.981 136.028 292.033 137.237 289.409 137.237H287.072C284.448 137.237 282.501 136.028 281.23 133.609L254.047 82.933C254.17 84.286 254.272 85.6185 254.354 86.9305C254.436 88.2425 254.477 89.452 254.477 90.559V148H239.902V59.071H252.386C253.124 59.071 253.76 59.0915 254.293 59.1325C254.826 59.1735 255.297 59.276 255.707 59.44C256.158 59.604 256.548 59.8705 256.876 60.2395C257.245 60.6085 257.593 61.1005 257.921 61.7155L284.551 111.1C285.248 112.412 285.883 113.765 286.457 115.159C287.072 116.553 287.667 117.988 288.241 119.464C288.815 117.947 289.409 116.491 290.024 115.097C290.639 113.662 291.295 112.289 291.992 110.977L318.253 61.7155C318.581 61.1005 318.929 60.6085 319.298 60.2395C319.667 59.8705 320.057 59.604 320.467 59.44C320.918 59.276 321.41 59.1735 321.943 59.1325C322.476 59.0915 323.111 59.071 323.849 59.071H336.334ZM379.776 83.917C384.45 83.917 388.693 84.6755 392.506 86.1925C396.36 87.7095 399.64 89.862 402.346 92.65C405.093 95.438 407.205 98.841 408.681 102.859C410.157 106.877 410.895 111.366 410.895 116.327C410.895 121.329 410.157 125.839 408.681 129.857C407.205 133.875 405.093 137.299 402.346 140.128C399.64 142.957 396.36 145.13 392.506 146.647C388.693 148.164 384.45 148.923 379.776 148.923C375.061 148.923 370.776 148.164 366.922 146.647C363.068 145.13 359.768 142.957 357.021 140.128C354.315 137.299 352.203 133.875 350.686 129.857C349.21 125.839 348.472 121.329 348.472 116.327C348.472 111.366 349.21 106.877 350.686 102.859C352.203 98.841 354.315 95.438 357.021 92.65C359.768 89.862 363.068 87.7095 366.922 86.1925C370.776 84.6755 375.061 83.917 379.776 83.917ZM379.776 137.237C385.024 137.237 388.898 135.474 391.399 131.948C393.941 128.422 395.212 123.256 395.212 116.45C395.212 109.644 393.941 104.458 391.399 100.891C388.898 97.324 385.024 95.5405 379.776 95.5405C374.446 95.5405 370.489 97.3445 367.906 100.952C365.364 104.519 364.093 109.685 364.093 116.45C364.093 123.215 365.364 128.381 367.906 131.948C370.489 135.474 374.446 137.237 379.776 137.237ZM436.69 92.65C437.961 91.379 439.293 90.2105 440.687 89.1445C442.122 88.0375 443.619 87.115 445.177 86.377C446.776 85.598 448.477 85.0035 450.281 84.5935C452.085 84.1425 454.053 83.917 456.185 83.917C459.629 83.917 462.684 84.5115 465.349 85.7005C468.014 86.8485 470.228 88.4885 471.991 90.6205C473.795 92.7115 475.148 95.233 476.05 98.185C476.993 101.096 477.464 104.314 477.464 107.84V148H462.274V107.84C462.274 103.986 461.392 101.014 459.629 98.923C457.866 96.791 455.181 95.725 451.573 95.725C448.949 95.725 446.489 96.3195 444.193 97.5085C441.897 98.6975 439.724 100.317 437.674 102.367V148H422.483V84.901H431.77C433.738 84.901 435.029 85.8235 435.644 87.6685L436.69 92.65ZM532.563 109.193C532.563 107.225 532.276 105.38 531.702 103.658C531.169 101.895 530.349 100.358 529.242 99.046C528.135 97.734 526.72 96.709 524.998 95.971C523.317 95.192 521.349 94.8025 519.094 94.8025C514.707 94.8025 511.243 96.053 508.701 98.554C506.2 101.055 504.601 104.601 503.904 109.193H532.563ZM503.596 118.357C503.842 121.596 504.416 124.404 505.318 126.782C506.22 129.119 507.409 131.067 508.885 132.625C510.361 134.142 512.104 135.29 514.113 136.069C516.163 136.807 518.418 137.176 520.878 137.176C523.338 137.176 525.449 136.889 527.212 136.315C529.016 135.741 530.574 135.105 531.886 134.408C533.239 133.711 534.408 133.076 535.392 132.502C536.417 131.928 537.401 131.641 538.344 131.641C539.615 131.641 540.558 132.112 541.173 133.055L545.539 138.59C543.858 140.558 541.972 142.219 539.881 143.572C537.79 144.884 535.597 145.95 533.301 146.77C531.046 147.549 528.729 148.103 526.351 148.431C524.014 148.759 521.739 148.923 519.525 148.923C515.138 148.923 511.058 148.205 507.286 146.77C503.514 145.294 500.234 143.141 497.446 140.312C494.658 137.442 492.465 133.916 490.866 129.734C489.267 125.511 488.467 120.632 488.467 115.097C488.467 110.792 489.164 106.754 490.558 102.982C491.952 99.169 493.941 95.8685 496.524 93.0805C499.148 90.2515 502.325 88.017 506.056 86.377C509.828 84.737 514.072 83.917 518.787 83.917C522.764 83.917 526.433 84.5525 529.795 85.8235C533.157 87.0945 536.048 88.96 538.467 91.42C540.886 93.839 542.772 96.832 544.125 100.399C545.519 103.925 546.216 107.963 546.216 112.514C546.216 114.81 545.97 116.368 545.478 117.188C544.986 117.967 544.043 118.357 542.649 118.357H503.596ZM613.132 84.901L578.753 165.343C578.302 166.409 577.708 167.209 576.97 167.742C576.273 168.316 575.186 168.603 573.71 168.603H562.394L574.202 143.264L548.68 84.901H562.025C563.214 84.901 564.137 85.188 564.793 85.762C565.49 86.336 566.002 86.992 566.33 87.73L579.737 120.448C580.188 121.555 580.557 122.662 580.844 123.769C581.172 124.876 581.48 126.003 581.767 127.151C582.136 126.003 582.505 124.876 582.874 123.769C583.243 122.621 583.653 121.493 584.104 120.386L596.773 87.73C597.101 86.91 597.634 86.2335 598.372 85.7005C599.151 85.1675 600.012 84.901 600.955 84.901H613.132ZM708.253 72.6625H681.439V148H664.895V72.6625H638.081V59.071H708.253V72.6625ZM719.449 95.848C721.417 92.076 723.754 89.124 726.46 86.992C729.166 84.819 732.364 83.7325 736.054 83.7325C738.965 83.7325 741.302 84.368 743.065 85.639L742.081 97.0165C741.876 97.7545 741.568 98.2875 741.158 98.6155C740.789 98.9025 740.277 99.046 739.621 99.046C739.006 99.046 738.083 98.9435 736.853 98.7385C735.664 98.5335 734.496 98.431 733.348 98.431C731.667 98.431 730.17 98.677 728.858 99.169C727.546 99.661 726.357 100.378 725.291 101.321C724.266 102.223 723.344 103.33 722.524 104.642C721.745 105.954 721.007 107.451 720.31 109.132V148H705.119V84.901H714.037C715.595 84.901 716.681 85.188 717.296 85.762C717.911 86.295 718.321 87.279 718.526 88.714L719.449 95.848ZM783.496 121.063C779.109 121.268 775.419 121.657 772.426 122.231C769.433 122.764 767.035 123.461 765.231 124.322C763.427 125.183 762.135 126.188 761.356 127.336C760.577 128.484 760.188 129.734 760.188 131.087C760.188 133.752 760.967 135.659 762.525 136.807C764.124 137.955 766.194 138.529 768.736 138.529C771.852 138.529 774.538 137.975 776.793 136.868C779.089 135.72 781.323 133.998 783.496 131.702V121.063ZM748.687 93.6955C755.944 87.0535 764.677 83.7325 774.886 83.7325C778.576 83.7325 781.877 84.3475 784.788 85.5775C787.699 86.7665 790.159 88.4475 792.168 90.6205C794.177 92.7525 795.694 95.315 796.719 98.308C797.785 101.301 798.318 104.581 798.318 108.148V148H791.43C789.995 148 788.888 147.795 788.109 147.385C787.33 146.934 786.715 146.052 786.264 144.74L784.911 140.189C783.312 141.624 781.754 142.895 780.237 144.002C778.72 145.068 777.141 145.97 775.501 146.708C773.861 147.446 772.098 148 770.212 148.369C768.367 148.779 766.317 148.984 764.062 148.984C761.397 148.984 758.937 148.636 756.682 147.938C754.427 147.2 752.48 146.114 750.84 144.679C749.2 143.244 747.929 141.46 747.027 139.328C746.125 137.196 745.674 134.716 745.674 131.887C745.674 130.288 745.94 128.709 746.473 127.151C747.006 125.552 747.867 124.035 749.056 122.6C750.286 121.165 751.865 119.812 753.792 118.541C755.719 117.27 758.076 116.163 760.864 115.22C763.693 114.277 766.973 113.519 770.704 112.945C774.435 112.33 778.699 111.961 783.496 111.838V108.148C783.496 103.925 782.594 100.809 780.79 98.8C778.986 96.75 776.383 95.725 772.98 95.725C770.52 95.725 768.47 96.012 766.83 96.586C765.231 97.16 763.816 97.816 762.586 98.554C761.356 99.251 760.229 99.8865 759.204 100.46C758.22 101.034 757.113 101.321 755.883 101.321C754.817 101.321 753.915 101.055 753.177 100.522C752.439 99.948 751.844 99.292 751.393 98.554L748.687 93.6955ZM857.827 98.2465C857.376 98.8205 856.925 99.2715 856.474 99.5995C856.064 99.9275 855.449 100.091 854.629 100.091C853.85 100.091 853.091 99.866 852.353 99.415C851.615 98.923 850.734 98.39 849.709 97.816C848.684 97.201 847.454 96.668 846.019 96.217C844.625 95.725 842.882 95.479 840.791 95.479C838.126 95.479 835.789 95.971 833.78 96.955C831.771 97.898 830.09 99.2715 828.737 101.075C827.425 102.879 826.441 105.073 825.785 107.656C825.129 110.198 824.801 113.088 824.801 116.327C824.801 119.689 825.15 122.682 825.847 125.306C826.585 127.93 827.63 130.144 828.983 131.948C830.336 133.711 831.976 135.064 833.903 136.007C835.83 136.909 838.003 137.36 840.422 137.36C842.841 137.36 844.789 137.073 846.265 136.499C847.782 135.884 849.053 135.228 850.078 134.531C851.103 133.793 851.984 133.137 852.722 132.563C853.501 131.948 854.362 131.641 855.305 131.641C856.535 131.641 857.458 132.112 858.073 133.055L862.439 138.59C860.758 140.558 858.934 142.219 856.966 143.572C854.998 144.884 852.948 145.95 850.816 146.77C848.725 147.549 846.552 148.103 844.297 148.431C842.083 148.759 839.869 148.923 837.655 148.923C833.76 148.923 830.09 148.205 826.646 146.77C823.202 145.294 820.189 143.162 817.606 140.374C815.023 137.586 812.973 134.183 811.456 130.165C809.98 126.106 809.242 121.493 809.242 116.327C809.242 111.694 809.898 107.41 811.21 103.474C812.563 99.497 814.531 96.0735 817.114 93.2035C819.697 90.2925 822.895 88.017 826.708 86.377C830.521 84.737 834.908 83.917 839.869 83.917C844.584 83.917 848.704 84.6755 852.23 86.1925C855.797 87.7095 858.995 89.8825 861.824 92.7115L857.827 98.2465ZM887.152 56.611V108.947H889.981C891.006 108.947 891.806 108.824 892.38 108.578C892.995 108.291 893.61 107.738 894.225 106.918L909.907 87.5455C910.563 86.6845 911.281 86.0285 912.06 85.5775C912.88 85.1265 913.925 84.901 915.196 84.901H929.095L909.477 108.332C908.083 110.177 906.566 111.592 904.926 112.576C905.787 113.191 906.545 113.908 907.201 114.728C907.898 115.548 908.554 116.43 909.169 117.373L930.202 148H916.488C915.299 148 914.274 147.815 913.413 147.446C912.552 147.036 911.834 146.319 911.26 145.294L895.147 121.37C894.573 120.427 893.979 119.812 893.364 119.525C892.749 119.238 891.826 119.095 890.596 119.095H887.152V148H871.962V56.611H887.152Z" fill="#F1F1F1"/>
<circle cx="100" cy="100" r="100" fill="url(#paint0_linear_167_11617)"/>
<rect x="36.6665" y="45.833" width="125.833" height="107.5" rx="15" fill="white"/>
<rect x="126.667" y="83.333" width="46.6667" height="32.5" rx="16.25" fill="url(#paint1_linear_167_11617)"/>
<rect x="131.667" y="87.5" width="38.3333" height="25" rx="12.5" fill="white"/>
<g clip-path="url(#clip0_167_11617)">
<path d="M94.8998 124.188V130.658C95.9245 130.884 96.7194 131 99.5141 131C102.306 131 103.404 130.884 104.427 130.658V124.188C109.805 123.507 114.983 121.905 118.324 119.38C121.661 116.858 123.334 113.717 123.334 109.973C123.334 103.165 118.596 98.2562 109.121 95.2487L99.715 92.2688C98.0799 91.7569 96.8871 91.2768 96.137 90.82C95.387 90.3673 95.0083 89.7435 95.0083 88.9482C95.0083 86.791 96.8495 85.7125 100.529 85.7125C104.211 85.7125 109.455 86.8482 116.272 89.1155C117.907 87.9817 119.237 86.4643 120.262 84.5629C121.284 82.6615 121.793 80.7465 121.793 78.8155C115.115 76.4772 109.223 75.6091 104.386 75.1545V68.4272C103.093 68.1416 102.441 68 99.9169 68C97.3991 68 96.2229 68.1416 94.9356 68.4272V75.2374C90.2313 75.9755 86.1351 77.1289 82.7962 80.2603C79.9636 82.9175 78.4539 86.049 78.4539 89.7966C78.4539 96.0399 83.0186 100.608 92.1527 103.503L101.864 106.399C104.931 107.363 106.462 108.727 106.462 110.485C106.462 111.619 105.885 112.485 104.725 113.081C103.568 113.675 102.002 113.973 100.026 113.973C94.9805 113.973 88.9157 112.412 81.8284 109.29C80.328 110.142 78.9981 111.573 77.8411 113.591C76.6815 115.606 76.0664 117.437 76 119.082C83.8019 123.007 87.4722 123.338 94.8998 124.188Z" fill="url(#paint2_linear_167_11617)"/>
</g>
<defs>
<linearGradient id="paint0_linear_167_11617" x1="100" y1="0" x2="100" y2="200" gradientUnits="userSpaceOnUse">
<stop stop-color="#64BFC3"/>
<stop offset="1" stop-color="#3B7F82" stop-opacity="0"/>
</linearGradient>
<linearGradient id="paint1_linear_167_11617" x1="150" y1="83.333" x2="150" y2="115.833" gradientUnits="userSpaceOnUse">
<stop stop-color="#64BFC3"/>
<stop offset="1" stop-color="#3B7F82" stop-opacity="0"/>
</linearGradient>
<linearGradient id="paint2_linear_167_11617" x1="99.6668" y1="68" x2="99.6668" y2="131" gradientUnits="userSpaceOnUse">
<stop stop-color="#0F3D3E"/>
<stop offset="1" stop-color="#0F3D3E" stop-opacity="0"/>
</linearGradient>
<clipPath id="clip0_167_11617">
<rect width="67.5" height="62.5" fill="white" transform="translate(65.8335 68.333)"/>
</clipPath>
</defs>
</svg>
